<svg width="548" height="508" viewBox="0 0 548 508" fill="none" xmlns="http://www.w3.org/2000/svg">
<path d="M73.6821 238.071C139.682 181.071 260.182 127.071 416.182 198.071C414.182 133.271 385.349 76.7376 371.182 56.5709C309.682 -39.4291 212 4.5 170.682 68.5709C167.074 74.1657 104.515 183.904 73.6821 238.071Z" fill="#FBC64D"/>
<path d="M428.449 155.071C444.519 240.784 430.584 372.093 290.755 471.214C347.768 502.078 411.132 505.591 435.688 503.49C549.594 498.62 566.682 390.071 526.161 324.162C522.674 318.49 459.758 208.964 428.449 155.071Z" fill="#25D8FA"/>
<path d="M324.353 502.663C241.504 475.442 133.16 399.957 113.685 229.67C59.1681 264.755 25.556 318.584 15.5645 341.113C-35.0561 443.269 62.5 502.663 128.183 502.663C134.84 502.663 262.042 504.127 324.353 502.663Z" fill="#FC417F"/>
</svg>
