<svg width="42" height="42" viewBox="0 0 42 42" fill="none" xmlns="http://www.w3.org/2000/svg">
<g id="icons / location-outline">
<path id="Vector" d="M21 3.9375C14.4785 3.9375 9.1875 8.9734 9.1875 15.1758C9.1875 22.3125 17.0625 33.6221 19.9541 37.5285C20.0741 37.6934 20.2314 37.8276 20.4132 37.9201C20.595 38.0126 20.796 38.0608 21 38.0608C21.204 38.0608 21.405 38.0126 21.5868 37.9201C21.7686 37.8276 21.9259 37.6934 22.0459 37.5285C24.9375 33.6238 32.8125 22.3182 32.8125 15.1758C32.8125 8.9734 27.5215 3.9375 21 3.9375Z" stroke="#D8F3DC" stroke-width="2" stroke-linecap="round" stroke-linejoin="round"/>
<path id="Vector_2" d="M21 19.6875C23.1746 19.6875 24.9375 17.9246 24.9375 15.75C24.9375 13.5754 23.1746 11.8125 21 11.8125C18.8254 11.8125 17.0625 13.5754 17.0625 15.75C17.0625 17.9246 18.8254 19.6875 21 19.6875Z" stroke="#D8F3DC" stroke-width="2" stroke-linecap="round" stroke-linejoin="round"/>
</g>
</svg>
